solid case
facet normal 0.0 -1.0 0.0
  outer loop
    vertex 54.117757988895434 -77.10007613735938 0.32609947878616014
    vertex 21.971128428274337 -77.10007613735938 0.0
    vertex 54.117757988895434 -77.10007613735938 0.0
  endloop
endfacet
facet normal 0.0 -1.0 0.0
  outer loop
    vertex 21.971128428274337 -77.10007613735938 0.0
    vertex 54.117757988895434 -77.10007613735938 0.32609947878616014
    vertex 21.971128428274337 -77.10007613735938 3.9999999999999996
  endloop
endfacet
facet normal -1.0 0.0 0.0
  outer loop
    vertex 21.971128428274337 -67.10007613735938 3.9999999999999996
    vertex 21.971128428274337 -77.10007613735938 0.0
    vertex 21.971128428274337 -77.10007613735938 3.9999999999999996
  endloop
endfacet
facet normal -1.0 0.0 0.0
  outer loop
    vertex 21.971128428274337 -77.10007613735938 0.0
    vertex 21.971128428274337 -67.10007613735938 3.9999999999999996
    vertex 21.971128428274337 -67.10007613735938 0.0
  endloop
endfacet
facet normal 0.1135465911607319 -2.2238722637395362e-17 0.9935326726564043
  outer loop
    vertex 21.971128428274337 -77.10007613735938 3.9999999999999996
    vertex 23.094482792584408 -72.33301327795165 3.871616644078848
    vertex 21.971128428274337 -67.10007613735938 3.9999999999999996
  endloop
endfacet
facet normal 0.1135465911607319 -2.2238722637395362e-17 0.9935326726564043
  outer loop
    vertex 23.094482792584408 -72.33301327795165 3.871616644078848
    vertex 21.971128428274337 -77.10007613735938 3.9999999999999996
    vertex 23.183811692977883 -72.55007613735937 3.8614076268910225
  endloop
endfacet
facet normal 0.1135465911607319 -2.2238722637395362e-17 0.9935326726564043
  outer loop
    vertex 23.183811692977883 -72.55007613735937 3.8614076268910225
    vertex 21.971128428274337 -77.10007613735938 3.9999999999999996
    vertex 23.325913452437984 -72.73647224042728 3.845167425809868
  endloop
endfacet
facet normal 0.1135465911607319 -2.2238722637395362e-17 0.9935326726564043
  outer loop
    vertex 23.325913452437984 -72.73647224042728 3.845167425809868
    vertex 21.971128428274337 -77.10007613735938 3.9999999999999996
    vertex 23.511104070891765 -72.87949900076536 3.824002783700864
  endloop
endfacet
facet normal 0.1135465911607319 -2.2238722637395362e-17 0.9935326726564043
  outer loop
    vertex 23.511104070891765 -72.87949900076536 3.824002783700864
    vertex 21.971128428274337 -77.10007613735938 3.9999999999999996
    vertex 23.72676311373357 -72.96940938101953 3.799356035947515
  endloop
endfacet
facet normal 0.1135465911607319 -2.2238722637395362e-17 0.9935326726564043
  outer loop
    vertex 23.72676311373357 -72.96940938101953 3.799356035947515
    vertex 21.971128428274337 -77.10007613735938 3.9999999999999996
    vertex 54.117757988895434 -77.10007613735938 0.32609947878616014
  endloop
endfacet
facet normal 0.1135465911607319 -2.2238722637395362e-17 0.9935326726564043
  outer loop
    vertex 21.971128428274337 -67.10007613735938 3.9999999999999996
    vertex 23.094482792584408 -72.33301327795165 3.871616644078848
    vertex 23.064014368196382 -72.10007613735938 3.8750987497231937
  endloop
endfacet
facet normal 0.1135465911607319 -2.2238722637395362e-17 0.9935326726564043
  outer loop
    vertex 23.72676311373357 -72.96940938101953 3.799356035947515
    vertex 54.117757988895434 -77.10007613735938 0.32609947878616014
    vertex 23.958193773587148 -73.00007613735937 3.772906817678535
  endloop
endfacet
facet normal 0.1135465911607319 -2.2238722637395362e-17 0.9935326726564043
  outer loop
    vertex 23.958193773587148 -73.00007613735937 3.772906817678535
    vertex 54.117757988895434 -77.10007613735938 0.32609947878616014
    vertex 24.189624433440724 -72.96940938101953 3.7464575994095544
  endloop
endfacet
facet normal 0.1135465911607319 -2.2238722637395362e-17 0.9935326726564043
  outer loop
    vertex 24.189624433440724 -72.96940938101953 3.7464575994095544
    vertex 54.117757988895434 -77.10007613735938 0.32609947878616014
    vertex 24.405283476282527 -72.87949900076536 3.7218108516562056
  endloop
endfacet
facet normal 0.1135465911607319 -2.2238722637395362e-17 0.9935326726564043
  outer loop
    vertex 24.405283476282527 -72.87949900076536 3.7218108516562056
    vertex 54.117757988895434 -77.10007613735938 0.32609947878616014
    vertex 24.590474094736308 -72.73647224042728 3.7006462095472026
  endloop
endfacet
facet normal 0.1135465911607319 -2.2238722637395362e-17 0.9935326726564043
  outer loop
    vertex 24.590474094736308 -72.73647224042728 3.7006462095472026
    vertex 54.117757988895434 -77.10007613735938 0.32609947878616014
    vertex 24.73257585419641 -72.55007613735937 3.684406008466048
  endloop
endfacet
facet normal 0.1135465911607319 -2.2238722637395362e-17 0.9935326726564043
  outer loop
    vertex 24.73257585419641 -72.55007613735937 3.684406008466048
    vertex 54.117757988895434 -77.10007613735938 0.32609947878616014
    vertex 24.821904754589887 -72.33301327795165 3.674196991278222
  endloop
endfacet
facet normal 0.1135465911607319 -2.2238722637395362e-17 0.9935326726564043
  outer loop
    vertex 24.821904754589887 -72.33301327795165 3.674196991278222
    vertex 54.117757988895434 -77.10007613735938 0.32609947878616014
    vertex 24.85237317897791 -72.10007613735938 3.670714885633877
  endloop
endfacet
facet normal 0.1135465911607319 -2.2238722637395362e-17 0.9935326726564043
  outer loop
    vertex 21.971128428274337 -67.10007613735938 3.9999999999999996
    vertex 23.72676311373357 -71.23074289369922 3.7993560359475165
    vertex 54.117757988895434 -67.10007613735938 0.32609947878616025
  endloop
endfacet
facet normal 0.1135465911607319 -2.2238722637395362e-17 0.9935326726564043
  outer loop
    vertex 23.72676311373357 -71.23074289369922 3.7993560359475165
    vertex 21.971128428274337 -67.10007613735938 3.9999999999999996
    vertex 23.511104070891765 -71.32065327395338 3.824002783700865
  endloop
endfacet
facet normal 0.1135465911607319 -2.2238722637395362e-17 0.9935326726564043
  outer loop
    vertex 23.511104070891765 -71.32065327395338 3.824002783700865
    vertex 21.971128428274337 -67.10007613735938 3.9999999999999996
    vertex 23.32591345243798 -71.46368003429149 3.8451674258098687
  endloop
endfacet
facet normal 0.1135465911607319 -2.2238722637395362e-17 0.9935326726564043
  outer loop
    vertex 23.32591345243798 -71.46368003429149 3.8451674258098687
    vertex 21.971128428274337 -67.10007613735938 3.9999999999999996
    vertex 23.183811692977883 -71.65007613735938 3.861407626891023
  endloop
endfacet
facet normal 0.1135465911607319 -2.2238722637395362e-17 0.9935326726564043
  outer loop
    vertex 23.183811692977883 -71.65007613735938 3.861407626891023
    vertex 21.971128428274337 -67.10007613735938 3.9999999999999996
    vertex 23.094482792584408 -71.86713899676711 3.871616644078849
  endloop
endfacet
facet normal 0.1135465911607319 -2.2238722637395362e-17 0.9935326726564043
  outer loop
    vertex 23.094482792584408 -71.86713899676711 3.871616644078849
    vertex 21.971128428274337 -67.10007613735938 3.9999999999999996
    vertex 23.064014368196382 -72.10007613735938 3.8750987497231937
  endloop
endfacet
facet normal 0.1135465911607319 -2.2238722637395362e-17 0.9935326726564043
  outer loop
    vertex 54.117757988895434 -67.10007613735938 0.32609947878616025
    vertex 23.72676311373357 -71.23074289369922 3.7993560359475165
    vertex 23.958193773587148 -71.20007613735937 3.7729068176785363
  endloop
endfacet
facet normal 0.1135465911607319 -2.2238722637395362e-17 0.9935326726564043
  outer loop
    vertex 54.117757988895434 -67.10007613735938 0.32609947878616025
    vertex 23.958193773587148 -71.20007613735937 3.7729068176785363
    vertex 24.189624433440724 -71.23074289369922 3.746457599409556
  endloop
endfacet
facet normal 0.1135465911607319 -2.2238722637395362e-17 0.9935326726564043
  outer loop
    vertex 54.117757988895434 -67.10007613735938 0.32609947878616025
    vertex 24.189624433440724 -71.23074289369922 3.746457599409556
    vertex 24.405283476282527 -71.32065327395338 3.721810851656207
  endloop
endfacet
facet normal 0.1135465911607319 -2.2238722637395362e-17 0.9935326726564043
  outer loop
    vertex 54.117757988895434 -67.10007613735938 0.32609947878616025
    vertex 24.405283476282527 -71.32065327395338 3.721810851656207
    vertex 24.590474094736308 -71.46368003429149 3.700646209547203
  endloop
endfacet
facet normal 0.1135465911607319 -2.2238722637395362e-17 0.9935326726564043
  outer loop
    vertex 54.117757988895434 -67.10007613735938 0.32609947878616025
    vertex 24.590474094736308 -71.46368003429149 3.700646209547203
    vertex 24.73257585419641 -71.65007613735938 3.684406008466049
  endloop
endfacet
facet normal 0.1135465911607319 -2.2238722637395362e-17 0.9935326726564043
  outer loop
    vertex 54.117757988895434 -67.10007613735938 0.32609947878616025
    vertex 24.73257585419641 -71.65007613735938 3.684406008466049
    vertex 24.821904754589887 -71.86713899676711 3.674196991278223
  endloop
endfacet
facet normal 0.1135465911607319 -2.2238722637395362e-17 0.9935326726564043
  outer loop
    vertex 54.117757988895434 -67.10007613735938 0.32609947878616025
    vertex 24.821904754589887 -71.86713899676711 3.674196991278223
    vertex 24.85237317897791 -72.10007613735938 3.670714885633877
  endloop
endfacet
facet normal 0.1135465911607319 -2.2238722637395362e-17 0.9935326726564043
  outer loop
    vertex 54.117757988895434 -67.10007613735938 0.32609947878616025
    vertex 24.85237317897791 -72.10007613735938 3.670714885633877
    vertex 54.117757988895434 -77.10007613735938 0.32609947878616014
  endloop
endfacet
facet normal 0.0 0.0 -1.0
  outer loop
    vertex 54.117757988895434 -67.10007613735938 0.0
    vertex 21.971128428274337 -77.10007613735938 0.0
    vertex 21.971128428274337 -67.10007613735938 0.0
  endloop
endfacet
facet normal 0.0 0.0 -1.0
  outer loop
    vertex 21.971128428274337 -77.10007613735938 0.0
    vertex 54.117757988895434 -67.10007613735938 0.0
    vertex 54.117757988895434 -77.10007613735938 0.0
  endloop
endfacet
facet normal 1.0 0.0 0.0
  outer loop
    vertex 54.117757988895434 -67.10007613735938 0.0
    vertex 54.117757988895434 -77.10007613735938 0.32609947878616014
    vertex 54.117757988895434 -77.10007613735938 0.0
  endloop
endfacet
facet normal 1.0 0.0 0.0
  outer loop
    vertex 54.117757988895434 -77.10007613735938 0.32609947878616014
    vertex 54.117757988895434 -67.10007613735938 0.0
    vertex 54.117757988895434 -67.10007613735938 0.32609947878616025
  endloop
endfacet
facet normal 0.7882224645404363 0.608761429008721 -0.09008256737604922
  outer loop
    vertex 22.82714311495448 -72.55007613735938 0.7405575691862655
    vertex 23.325913452437984 -72.73647224042728 3.845167425809868
    vertex 22.96924487441458 -72.73647224042728 0.7243173681051124
  endloop
endfacet
facet normal 0.7882224645404363 0.608761429008721 -0.09008256737604922
  outer loop
    vertex 23.325913452437984 -72.73647224042728 3.845167425809868
    vertex 22.82714311495448 -72.55007613735938 0.7405575691862655
    vertex 23.183811692977883 -72.55007613735937 3.8614076268910225
  endloop
endfacet
facet normal 0.6048243695731531 0.7933533402912453 -0.0691227850940739
  outer loop
    vertex 22.96924487441458 -72.73647224042728 0.7243173681051124
    vertex 23.511104070891765 -72.87949900076536 3.824002783700864
    vertex 23.154435492868362 -72.87949900076538 0.7031527259961067
  endloop
endfacet
facet normal 0.6048243695731531 0.7933533402912453 -0.0691227850940739
  outer loop
    vertex 23.511104070891765 -72.87949900076536 3.824002783700864
    vertex 22.96924487441458 -72.73647224042728 0.7243173681051124
    vertex 23.325913452437984 -72.73647224042728 3.845167425809868
  endloop
endfacet
facet normal -0.12968203660804412 0.9914448613738115 0.014820804183777216
  outer loop
    vertex 23.60152519556374 -73.00007613735939 0.6520567599737778
    vertex 24.189624433440724 -72.96940938101953 3.7464575994095544
    vertex 23.83295585541732 -72.96940938101955 0.6256075417047987
  endloop
endfacet
facet normal -0.12968203660804412 0.9914448613738115 0.014820804183777216
  outer loop
    vertex 24.189624433440724 -72.96940938101953 3.7464575994095544
    vertex 23.60152519556374 -73.00007613735939 0.6520567599737778
    vertex 23.958193773587148 -73.00007613735937 3.772906817678535
  endloop
endfacet
facet normal -0.38020849333904055 0.9238795325112757 0.04345239923874812
  outer loop
    vertex 23.83295585541732 -72.96940938101955 0.6256075417047987
    vertex 24.405283476282527 -72.87949900076536 3.7218108516562056
    vertex 24.048614898259125 -72.87949900076538 0.6009607939514483
  endloop
endfacet
facet normal -0.38020849333904055 0.9238795325112757 0.04345239923874812
  outer loop
    vertex 24.405283476282527 -72.87949900076536 3.7218108516562056
    vertex 23.83295585541732 -72.96940938101955 0.6256075417047987
    vertex 24.189624433440724 -72.96940938101953 3.7464575994095544
  endloop
endfacet
facet normal 0.11354659116073171 -7.726119640557537e-16 0.9935326726564043
  outer loop
    vertex 22.737814214561002 -72.33301327795165 0.7507665863740911
    vertex 22.737814214561002 -71.86713899676712 0.7507665863740925
    vertex 22.70734579017298 -72.1000761373594 0.7542486920184375
  endloop
endfacet
facet normal 0.11354659116073171 -7.726119640557537e-16 0.9935326726564043
  outer loop
    vertex 22.737814214561002 -71.86713899676712 0.7507665863740925
    vertex 22.737814214561002 -72.33301327795165 0.7507665863740911
    vertex 22.82714311495448 -72.55007613735938 0.7405575691862655
  endloop
endfacet
facet normal 0.11354659116073171 -7.726119640557537e-16 0.9935326726564043
  outer loop
    vertex 22.737814214561002 -71.86713899676712 0.7507665863740925
    vertex 22.82714311495448 -72.55007613735938 0.7405575691862655
    vertex 22.82714311495448 -71.65007613735939 0.7405575691862669
  endloop
endfacet
facet normal 0.11354659116073171 -7.726119640557537e-16 0.9935326726564043
  outer loop
    vertex 22.82714311495448 -71.65007613735939 0.7405575691862669
    vertex 22.82714311495448 -72.55007613735938 0.7405575691862655
    vertex 22.96924487441458 -72.73647224042728 0.7243173681051124
  endloop
endfacet
facet normal 0.11354659116073171 -7.726119640557537e-16 0.9935326726564043
  outer loop
    vertex 22.82714311495448 -71.65007613735939 0.7405575691862669
    vertex 22.96924487441458 -72.73647224042728 0.7243173681051124
    vertex 22.969244874414578 -71.4636800342915 0.7243173681051124
  endloop
endfacet
facet normal 0.11354659116073171 -7.726119640557537e-16 0.9935326726564043
  outer loop
    vertex 22.969244874414578 -71.4636800342915 0.7243173681051124
    vertex 22.96924487441458 -72.73647224042728 0.7243173681051124
    vertex 23.154435492868362 -71.3206532739534 0.7031527259961095
  endloop
endfacet
facet normal 0.11354659116073171 -7.726119640557537e-16 0.9935326726564043
  outer loop
    vertex 23.154435492868362 -71.3206532739534 0.7031527259961095
    vertex 22.96924487441458 -72.73647224042728 0.7243173681051124
    vertex 23.154435492868362 -72.87949900076538 0.7031527259961067
  endloop
endfacet
facet normal 0.11354659116073171 -7.726119640557537e-16 0.9935326726564043
  outer loop
    vertex 23.154435492868362 -71.3206532739534 0.7031527259961095
    vertex 23.154435492868362 -72.87949900076538 0.7031527259961067
    vertex 23.370094535710166 -72.96940938101955 0.678505978242759
  endloop
endfacet
facet normal 0.11354659116073171 -7.726119640557537e-16 0.9935326726564043
  outer loop
    vertex 23.154435492868362 -71.3206532739534 0.7031527259961095
    vertex 23.370094535710166 -72.96940938101955 0.678505978242759
    vertex 23.370094535710166 -71.23074289369923 0.678505978242759
  endloop
endfacet
facet normal 0.11354659116073171 -7.726119640557537e-16 0.9935326726564043
  outer loop
    vertex 23.370094535710166 -71.23074289369923 0.678505978242759
    vertex 23.370094535710166 -72.96940938101955 0.678505978242759
    vertex 23.60152519556374 -73.00007613735939 0.6520567599737778
  endloop
endfacet
facet normal 0.11354659116073171 -7.726119640557537e-16 0.9935326726564043
  outer loop
    vertex 23.370094535710166 -71.23074289369923 0.678505978242759
    vertex 23.60152519556374 -73.00007613735939 0.6520567599737778
    vertex 23.60152519556374 -71.20007613735939 0.6520567599737805
  endloop
endfacet
facet normal 0.11354659116073171 -7.726119640557537e-16 0.9935326726564043
  outer loop
    vertex 23.60152519556374 -71.20007613735939 0.6520567599737805
    vertex 23.60152519556374 -73.00007613735939 0.6520567599737778
    vertex 23.83295585541732 -72.96940938101955 0.6256075417047987
  endloop
endfacet
facet normal 0.11354659116073171 -7.726119640557537e-16 0.9935326726564043
  outer loop
    vertex 23.60152519556374 -71.20007613735939 0.6520567599737805
    vertex 23.83295585541732 -72.96940938101955 0.6256075417047987
    vertex 23.83295585541732 -71.23074289369923 0.6256075417047987
  endloop
endfacet
facet normal 0.11354659116073171 -7.726119640557537e-16 0.9935326726564043
  outer loop
    vertex 23.83295585541732 -71.23074289369923 0.6256075417047987
    vertex 23.83295585541732 -72.96940938101955 0.6256075417047987
    vertex 24.048614898259125 -72.87949900076538 0.6009607939514483
  endloop
endfacet
facet normal 0.11354659116073171 -7.726119640557537e-16 0.9935326726564043
  outer loop
    vertex 23.83295585541732 -71.23074289369923 0.6256075417047987
    vertex 24.048614898259125 -72.87949900076538 0.6009607939514483
    vertex 24.048614898259125 -71.3206532739534 0.6009607939514512
  endloop
endfacet
facet normal 0.11354659116073171 -7.726119640557537e-16 0.9935326726564043
  outer loop
    vertex 24.048614898259125 -71.3206532739534 0.6009607939514512
    vertex 24.048614898259125 -72.87949900076538 0.6009607939514483
    vertex 24.233805516712906 -72.73647224042728 0.5797961518424458
  endloop
endfacet
facet normal 0.11354659116073171 -7.726119640557537e-16 0.9935326726564043
  outer loop
    vertex 24.048614898259125 -71.3206532739534 0.6009607939514512
    vertex 24.233805516712906 -72.73647224042728 0.5797961518424458
    vertex 24.233805516712906 -71.4636800342915 0.5797961518424458
  endloop
endfacet
facet normal 0.11354659116073171 -7.726119640557537e-16 0.9935326726564043
  outer loop
    vertex 24.233805516712906 -71.4636800342915 0.5797961518424458
    vertex 24.233805516712906 -72.73647224042728 0.5797961518424458
    vertex 24.375907276173006 -72.55007613735938 0.5635559507612898
  endloop
endfacet
facet normal 0.11354659116073171 -7.726119640557537e-16 0.9935326726564043
  outer loop
    vertex 24.233805516712906 -71.4636800342915 0.5797961518424458
    vertex 24.375907276173006 -72.55007613735938 0.5635559507612898
    vertex 24.375907276173006 -71.65007613735939 0.5635559507612926
  endloop
endfacet
facet normal 0.11354659116073171 -7.726119640557537e-16 0.9935326726564043
  outer loop
    vertex 24.375907276173006 -71.65007613735939 0.5635559507612926
    vertex 24.375907276173006 -72.55007613735938 0.5635559507612898
    vertex 24.46523617656648 -72.33301327795165 0.5533469335734642
  endloop
endfacet
facet normal 0.11354659116073171 -7.726119640557537e-16 0.9935326726564043
  outer loop
    vertex 24.375907276173006 -71.65007613735939 0.5635559507612926
    vertex 24.46523617656648 -72.33301327795165 0.5533469335734642
    vertex 24.46523617656648 -71.86713899676712 0.553346933573467
  endloop
endfacet
facet normal 0.11354659116073171 -7.726119640557537e-16 0.9935326726564043
  outer loop
    vertex 24.46523617656648 -71.86713899676712 0.553346933573467
    vertex 24.46523617656648 -72.33301327795165 0.5533469335734642
    vertex 24.495704600954504 -72.1000761373594 0.5498648279291193
  endloop
endfacet
facet normal 0.9179045011484868 0.3826834323650933 -0.10490337155982657
  outer loop
    vertex 22.737814214561002 -72.33301327795165 0.7507665863740911
    vertex 23.183811692977883 -72.55007613735937 3.8614076268910225
    vertex 22.82714311495448 -72.55007613735938 0.7405575691862655
  endloop
endfacet
facet normal 0.9179045011484868 0.3826834323650933 -0.10490337155982657
  outer loop
    vertex 23.183811692977883 -72.55007613735937 3.8614076268910225
    vertex 22.737814214561002 -72.33301327795165 0.7507665863740911
    vertex 23.094482792584408 -72.33301327795165 3.871616644078848
  endloop
endfacet
facet normal 0.3802084933390407 0.9238795325112757 -0.043452399238746706
  outer loop
    vertex 23.154435492868362 -72.87949900076538 0.7031527259961067
    vertex 23.72676311373357 -72.96940938101953 3.799356035947515
    vertex 23.370094535710166 -72.96940938101955 0.678505978242759
  endloop
endfacet
facet normal 0.3802084933390407 0.9238795325112757 -0.043452399238746706
  outer loop
    vertex 23.72676311373357 -72.96940938101953 3.799356035947515
    vertex 23.154435492868362 -72.87949900076538 0.7031527259961067
    vertex 23.511104070891765 -72.87949900076536 3.824002783700864
  endloop
endfacet
facet normal 0.1296820366080443 0.9914448613738115 -0.014820804183775693
  outer loop
    vertex 23.370094535710166 -72.96940938101955 0.678505978242759
    vertex 23.958193773587148 -73.00007613735937 3.772906817678535
    vertex 23.60152519556374 -73.00007613735939 0.6520567599737778
  endloop
endfacet
facet normal 0.1296820366080443 0.9914448613738115 -0.014820804183775693
  outer loop
    vertex 23.958193773587148 -73.00007613735937 3.772906817678535
    vertex 23.370094535710166 -72.96940938101955 0.678505978242759
    vertex 23.72676311373357 -72.96940938101953 3.799356035947515
  endloop
endfacet
facet normal -0.6048243695731531 0.7933533402912452 0.06912278509407513
  outer loop
    vertex 24.048614898259125 -72.87949900076538 0.6009607939514483
    vertex 24.590474094736308 -72.73647224042728 3.7006462095472026
    vertex 24.233805516712906 -72.73647224042728 0.5797961518424458
  endloop
endfacet
facet normal -0.6048243695731531 0.7933533402912452 0.06912278509407513
  outer loop
    vertex 24.590474094736308 -72.73647224042728 3.7006462095472026
    vertex 24.048614898259125 -72.87949900076538 0.6009607939514483
    vertex 24.405283476282527 -72.87949900076536 3.7218108516562056
  endloop
endfacet
facet normal -0.7882224645404364 0.6087614290087211 0.09008256737605017
  outer loop
    vertex 24.590474094736308 -72.73647224042728 3.7006462095472026
    vertex 24.375907276173006 -72.55007613735938 0.5635559507612898
    vertex 24.233805516712906 -72.73647224042728 0.5797961518424458
  endloop
endfacet
facet normal -0.7882224645404364 0.6087614290087211 0.09008256737605017
  outer loop
    vertex 24.375907276173006 -72.55007613735938 0.5635559507612898
    vertex 24.590474094736308 -72.73647224042728 3.7006462095472026
    vertex 24.73257585419641 -72.55007613735937 3.684406008466048
  endloop
endfacet
facet normal -0.9179045011484865 0.38268343236509317 0.10490337155982714
  outer loop
    vertex 24.73257585419641 -72.55007613735937 3.684406008466048
    vertex 24.46523617656648 -72.33301327795165 0.5533469335734642
    vertex 24.375907276173006 -72.55007613735938 0.5635559507612898
  endloop
endfacet
facet normal -0.9179045011484865 0.38268343236509317 0.10490337155982714
  outer loop
    vertex 24.46523617656648 -72.33301327795165 0.5533469335734642
    vertex 24.73257585419641 -72.55007613735937 3.684406008466048
    vertex 24.821904754589887 -72.33301327795165 3.674196991278222
  endloop
endfacet
facet normal -0.9850328629121798 0.13052619222005307 0.11257518433282043
  outer loop
    vertex 24.821904754589887 -72.33301327795165 3.674196991278222
    vertex 24.495704600954504 -72.1000761373594 0.5498648279291193
    vertex 24.46523617656648 -72.33301327795165 0.5533469335734642
  endloop
endfacet
facet normal -0.9850328629121798 0.13052619222005307 0.11257518433282043
  outer loop
    vertex 24.495704600954504 -72.1000761373594 0.5498648279291193
    vertex 24.821904754589887 -72.33301327795165 3.674196991278222
    vertex 24.85237317897791 -72.10007613735938 3.670714885633877
  endloop
endfacet
facet normal -0.9179045011484868 -0.3826834323650933 0.10490337155982657
  outer loop
    vertex 24.821904754589887 -71.86713899676711 3.674196991278223
    vertex 24.375907276173006 -71.65007613735939 0.5635559507612926
    vertex 24.46523617656648 -71.86713899676712 0.553346933573467
  endloop
endfacet
facet normal -0.9179045011484868 -0.3826834323650933 0.10490337155982657
  outer loop
    vertex 24.375907276173006 -71.65007613735939 0.5635559507612926
    vertex 24.821904754589887 -71.86713899676711 3.674196991278223
    vertex 24.73257585419641 -71.65007613735938 3.684406008466049
  endloop
endfacet
facet normal 0.9179045011484865 -0.38268343236509317 -0.10490337155982714
  outer loop
    vertex 22.82714311495448 -71.65007613735939 0.7405575691862669
    vertex 23.094482792584408 -71.86713899676711 3.871616644078849
    vertex 22.737814214561002 -71.86713899676712 0.7507665863740925
  endloop
endfacet
facet normal 0.9179045011484865 -0.38268343236509317 -0.10490337155982714
  outer loop
    vertex 23.094482792584408 -71.86713899676711 3.871616644078849
    vertex 22.82714311495448 -71.65007613735939 0.7405575691862669
    vertex 23.183811692977883 -71.65007613735938 3.861407626891023
  endloop
endfacet
facet normal 0.12968203660804412 -0.9914448613738115 -0.014820804183777216
  outer loop
    vertex 23.958193773587148 -71.20007613735937 3.7729068176785363
    vertex 23.370094535710166 -71.23074289369923 0.678505978242759
    vertex 23.60152519556374 -71.20007613735939 0.6520567599737805
  endloop
endfacet
facet normal 0.12968203660804412 -0.9914448613738115 -0.014820804183777216
  outer loop
    vertex 23.370094535710166 -71.23074289369923 0.678505978242759
    vertex 23.958193773587148 -71.20007613735937 3.7729068176785363
    vertex 23.72676311373357 -71.23074289369922 3.7993560359475165
  endloop
endfacet
facet normal 0.788222464540442 -0.6087614290087136 -0.09008256737605082
  outer loop
    vertex 22.969244874414578 -71.4636800342915 0.7243173681051124
    vertex 23.183811692977883 -71.65007613735938 3.861407626891023
    vertex 22.82714311495448 -71.65007613735939 0.7405575691862669
  endloop
endfacet
facet normal 0.788222464540442 -0.6087614290087136 -0.09008256737605082
  outer loop
    vertex 23.183811692977883 -71.65007613735938 3.861407626891023
    vertex 22.969244874414578 -71.4636800342915 0.7243173681051124
    vertex 23.32591345243798 -71.46368003429149 3.8451674258098687
  endloop
endfacet
facet normal -0.6048243695731531 -0.7933533402912453 0.0691227850940739
  outer loop
    vertex 24.590474094736308 -71.46368003429149 3.700646209547203
    vertex 24.048614898259125 -71.3206532739534 0.6009607939514512
    vertex 24.233805516712906 -71.4636800342915 0.5797961518424458
  endloop
endfacet
facet normal -0.6048243695731531 -0.7933533402912453 0.0691227850940739
  outer loop
    vertex 24.048614898259125 -71.3206532739534 0.6009607939514512
    vertex 24.590474094736308 -71.46368003429149 3.700646209547203
    vertex 24.405283476282527 -71.32065327395338 3.721810851656207
  endloop
endfacet
facet normal 0.9850328629121798 0.13052619222005338 -0.11257518433282024
  outer loop
    vertex 22.70734579017298 -72.1000761373594 0.7542486920184375
    vertex 23.094482792584408 -72.33301327795165 3.871616644078848
    vertex 22.737814214561002 -72.33301327795165 0.7507665863740911
  endloop
endfacet
facet normal 0.9850328629121798 0.13052619222005338 -0.11257518433282024
  outer loop
    vertex 23.094482792584408 -72.33301327795165 3.871616644078848
    vertex 22.70734579017298 -72.1000761373594 0.7542486920184375
    vertex 23.064014368196382 -72.10007613735938 3.8750987497231937
  endloop
endfacet
facet normal -0.1296820366080443 -0.9914448613738115 0.014820804183775693
  outer loop
    vertex 24.189624433440724 -71.23074289369922 3.746457599409556
    vertex 23.60152519556374 -71.20007613735939 0.6520567599737805
    vertex 23.83295585541732 -71.23074289369923 0.6256075417047987
  endloop
endfacet
facet normal -0.1296820366080443 -0.9914448613738115 0.014820804183775693
  outer loop
    vertex 23.60152519556374 -71.20007613735939 0.6520567599737805
    vertex 24.189624433440724 -71.23074289369922 3.746457599409556
    vertex 23.958193773587148 -71.20007613735937 3.7729068176785363
  endloop
endfacet
facet normal -0.7882224645404363 -0.608761429008721 0.09008256737604922
  outer loop
    vertex 24.73257585419641 -71.65007613735938 3.684406008466049
    vertex 24.233805516712906 -71.4636800342915 0.5797961518424458
    vertex 24.375907276173006 -71.65007613735939 0.5635559507612926
  endloop
endfacet
facet normal -0.7882224645404363 -0.608761429008721 0.09008256737604922
  outer loop
    vertex 24.233805516712906 -71.4636800342915 0.5797961518424458
    vertex 24.73257585419641 -71.65007613735938 3.684406008466049
    vertex 24.590474094736308 -71.46368003429149 3.700646209547203
  endloop
endfacet
facet normal -0.3802084933390407 -0.9238795325112757 0.043452399238746706
  outer loop
    vertex 24.405283476282527 -71.32065327395338 3.721810851656207
    vertex 23.83295585541732 -71.23074289369923 0.6256075417047987
    vertex 24.048614898259125 -71.3206532739534 0.6009607939514512
  endloop
endfacet
facet normal -0.3802084933390407 -0.9238795325112757 0.043452399238746706
  outer loop
    vertex 23.83295585541732 -71.23074289369923 0.6256075417047987
    vertex 24.405283476282527 -71.32065327395338 3.721810851656207
    vertex 24.189624433440724 -71.23074289369922 3.746457599409556
  endloop
endfacet
facet normal 0.6048243695731474 -0.7933533402912496 -0.06912278509407448
  outer loop
    vertex 23.511104070891765 -71.32065327395338 3.824002783700865
    vertex 22.969244874414578 -71.4636800342915 0.7243173681051124
    vertex 23.154435492868362 -71.3206532739534 0.7031527259961095
  endloop
endfacet
facet normal 0.6048243695731474 -0.7933533402912496 -0.06912278509407448
  outer loop
    vertex 22.969244874414578 -71.4636800342915 0.7243173681051124
    vertex 23.511104070891765 -71.32065327395338 3.824002783700865
    vertex 23.32591345243798 -71.46368003429149 3.8451674258098687
  endloop
endfacet
facet normal -0.9850328629121798 -0.13052619222005338 0.11257518433282024
  outer loop
    vertex 24.85237317897791 -72.10007613735938 3.670714885633877
    vertex 24.46523617656648 -71.86713899676712 0.553346933573467
    vertex 24.495704600954504 -72.1000761373594 0.5498648279291193
  endloop
endfacet
facet normal -0.9850328629121798 -0.13052619222005338 0.11257518433282024
  outer loop
    vertex 24.46523617656648 -71.86713899676712 0.553346933573467
    vertex 24.85237317897791 -72.10007613735938 3.670714885633877
    vertex 24.821904754589887 -71.86713899676711 3.674196991278223
  endloop
endfacet
facet normal 0.38020849333904055 -0.9238795325112757 -0.04345239923874812
  outer loop
    vertex 23.72676311373357 -71.23074289369922 3.7993560359475165
    vertex 23.154435492868362 -71.3206532739534 0.7031527259961095
    vertex 23.370094535710166 -71.23074289369923 0.678505978242759
  endloop
endfacet
facet normal 0.38020849333904055 -0.9238795325112757 -0.04345239923874812
  outer loop
    vertex 23.154435492868362 -71.3206532739534 0.7031527259961095
    vertex 23.72676311373357 -71.23074289369922 3.7993560359475165
    vertex 23.511104070891765 -71.32065327395338 3.824002783700865
  endloop
endfacet
facet normal 0.9850328629121798 -0.13052619222005307 -0.11257518433282043
  outer loop
    vertex 22.737814214561002 -71.86713899676712 0.7507665863740925
    vertex 23.064014368196382 -72.10007613735938 3.8750987497231937
    vertex 22.70734579017298 -72.1000761373594 0.7542486920184375
  endloop
endfacet
facet normal 0.9850328629121798 -0.13052619222005307 -0.11257518433282043
  outer loop
    vertex 23.064014368196382 -72.10007613735938 3.8750987497231937
    vertex 22.737814214561002 -71.86713899676712 0.7507665863740925
    vertex 23.094482792584408 -71.86713899676711 3.871616644078849
  endloop
endfacet
facet normal 0.0 1.0 0.0
  outer loop
    vertex 21.971128428274337 -67.10007613735938 3.9999999999999996
    vertex 54.117757988895434 -67.10007613735938 0.0
    vertex 21.971128428274337 -67.10007613735938 0.0
  endloop
endfacet
facet normal 0.0 1.0 0.0
  outer loop
    vertex 54.117757988895434 -67.10007613735938 0.0
    vertex 21.971128428274337 -67.10007613735938 3.9999999999999996
    vertex 54.117757988895434 -67.10007613735938 0.32609947878616025
  endloop
endfacet
endsolid case
